PathFileType	4	(X/Y/Z)	PS_ngait_og_ss8.trc	
DataRate	CameraRate	NumFrames	NumMarkers	Units	OrigDataRate	OrigDataStartFrame	OrigNumFrames	
120.00	120.00	5	39	mm	120.00	474	129	
Frame#	Time	Sternum			Neck			RShoulder			LShoulder			Xiphoid			Thoracic			RAsis			LAsis			RPsis			LPsis			LThighSuperior			LThighInferior			LThighLateral			LShankSuperior			LShankInferior			LShankLateral			RThighSuperior			RThighInferior			RThighLateral			RShankSuperior			RShankInferior			RShankLateral			RHeel			RToe			RMidfootMedial			RMidfootLateral			RHindfoot			RMidfootSuperior			RToeMedial			RToeLateral			LHeel			LToe			LMidfootMedial			LMidfootLateral			LHindfoot			LMidfootSuperior			LToeMedial			LToeLateral			Sacral			
		X1	Y1	Z1	X2	Y2	Z2	X3	Y3	Z3	X4	Y4	Z4	X5	Y5	Z5	X6	Y6	Z6	X7	Y7	Z7	X8	Y8	Z8	X9	Y9	Z9	X10	Y10	Z10	X11	Y11	Z11	X12	Y12	Z12	X13	Y13	Z13	X14	Y14	Z14	X15	Y15	Z15	X16	Y16	Z16	X17	Y17	Z17	X18	Y18	Z18	X19	Y19	Z19	X20	Y20	Z20	X21	Y21	Z21	X22	Y22	Z22	X23	Y23	Z23	X24	Y24	Z24	X25	Y25	Z25	X26	Y26	Z26	X27	Y27	Z27	X28	Y28	Z28	X29	Y29	Z29	X30	Y30	Z30	X31	Y31	Z31	X32	Y32	Z32	X33	Y33	Z33	X34	Y34	Z34	X35	Y35	Z35	X36	Y36	Z36	X37	Y37	Z37	X38	Y38	Z38	X39	Y39	Z39	

97	0.800	892.07208	1446.66174	123.70535	729.55957	1544.53723	148.49356	794.08203	1525.95776	303.07117	742.41388	1536.54602	5.46381	928.04333	1289.39832	123.40086	651.04932	1325.37097	160.38580	865.53876	1029.06079	268.36862	838.97540	1012.99426	-3.44486	667.30103	1042.63647	208.28470	651.42554	1034.03198	106.34297	814.37958	840.35815	-33.55505	889.66925	625.32361	-49.15743	943.50519	744.17480	-5.40700	794.11835	440.81851	-46.60040	684.33142	293.28357	-1.68537	788.90479	337.99701	24.30186	821.68567	827.76617	319.83160	844.82831	589.43506	285.19519	916.95471	750.04584	243.90201	826.57562	429.11575	291.07404	811.55707	176.17908	251.02719	868.04089	302.02945	208.66118	716.45660	66.09698	195.78876	1033.07031	51.37568	207.64738	937.49939	32.93590	156.57275	932.02917	30.61086	274.12576	877.94708	31.46733	264.68561	899.49249	94.47511	206.03122	980.38824	35.91077	159.98778	980.70782	37.33997	263.45935	551.17499	258.11594	71.87474	767.78809	47.99643	0.66206	688.36469	90.53491	73.20206	662.91522	92.52295	-37.93217	626.15729	126.80492	-19.96665	705.46844	154.46092	21.42995	719.94873	64.74079	61.29973	703.54419	72.19706	-41.14408	659.36328	1038.33423	157.31384 
98	0.808	899.84131	1447.47400	123.69998	737.22815	1545.19873	148.64854	802.15613	1526.96741	303.20975	750.01776	1537.05627	5.66754	935.97968	1290.14563	123.70989	658.85754	1326.09460	161.04216	873.23230	1029.70764	268.84015	846.48596	1013.85553	-3.02517	674.97125	1043.46313	208.87332	659.04993	1035.02881	106.92976	820.85364	842.74286	-34.99979	901.43408	627.96429	-49.48924	953.47406	747.64636	-5.73972	810.28418	440.15103	-47.28781	704.14240	289.76703	-1.53964	806.15881	337.18198	23.67724	827.59955	828.04004	320.13403	847.79510	589.39587	285.29953	922.01233	749.32886	244.07506	828.25452	429.31488	291.19412	811.99518	176.34991	251.16237	868.91711	301.61203	208.54716	716.47290	66.18938	195.73502	1033.16260	51.13816	207.64487	937.50714	32.90596	156.52020	931.79938	30.27115	273.95752	877.96387	31.47865	264.77383	899.63068	94.38419	206.15465	980.45392	35.83747	159.96167	980.79688	37.03240	263.43616	572.05426	250.80443	72.27901	794.89581	47.70839	0.16145	714.07794	87.92664	73.31747	687.76599	88.78200	-37.33572	650.90259	121.81712	-19.64688	728.81390	152.52756	21.11686	746.82959	63.00991	61.00060	729.63965	69.54565	-41.37729	667.01062	1039.24597	157.90154 
99	0.817	907.63165	1448.19739	123.76597	744.93707	1545.77661	148.85526	810.39441	1528.06689	303.22476	757.54590	1537.49072	5.93122	943.82684	1290.89734	123.77180	666.73511	1326.74719	161.61688	880.87292	1029.92261	269.19659	854.04639	1014.77600	-2.73835	682.62402	1044.18640	209.30748	666.65228	1035.93750	107.29221	827.14099	844.87683	-36.92305	912.70801	630.55304	-49.86972	963.44788	750.95935	-5.95867	826.98920	439.28619	-47.91347	723.78680	286.54022	-1.95254	823.95160	336.16959	23.11437	833.49774	828.23309	320.34317	850.82104	589.44916	285.41721	927.01697	748.76276	244.30215	830.07220	429.44403	291.24704	812.51733	176.44293	251.25249	870.09113	301.49225	208.67317	716.51544	66.27608	195.74652	1033.19885	50.77586	207.44676	937.50635	32.88414	156.46452	931.80597	30.22130	273.90320	877.94904	31.50348	264.76828	899.80847	94.46145	206.11159	980.38806	35.65892	159.81798	980.84796	36.83060	263.29230	592.91498	242.77855	72.35035	822.37292	46.98929	-0.24109	740.18860	85.11875	72.84336	714.70251	85.92746	-37.98411	675.95105	116.47041	-20.08424	753.21259	150.15320	20.79209	773.67792	60.91171	60.42906	756.87677	67.65739	-41.99973	674.63818	1040.06189	158.29985 
100	0.825	915.47961	1448.85242	123.74355	752.76654	1546.24451	149.09735	818.62030	1528.94104	303.29547	765.20093	1537.79810	6.16962	951.61383	1291.31616	123.79346	674.73132	1327.28369	162.26376	888.42010	1030.31885	269.51498	861.60773	1015.36383	-2.46453	690.19769	1044.80115	209.59525	674.28668	1036.83997	107.62530	833.40479	846.66742	-39.19623	923.78394	632.93280	-50.33205	973.03589	753.98248	-6.25925	843.77411	438.08618	-48.37426	743.79205	282.59818	-2.19147	841.82452	334.82202	22.71637	839.39648	828.35107	320.45981	853.99658	589.44421	285.60959	931.87738	748.10681	244.18640	832.00403	429.53381	291.36533	813.04346	176.55388	251.34521	871.34546	301.36755	208.81482	716.03870	66.79993	196.18832	1033.26855	50.71701	207.62827	937.49109	32.88029	156.40462	931.81274	30.10001	273.99399	878.98383	31.57055	264.86343	899.88806	94.42849	206.16071	980.52264	35.67164	159.90498	980.83594	36.70859	263.38126	614.51184	233.96396	72.11578	850.53754	46.15198	-0.89024	769.01526	82.01749	72.70729	742.55719	82.04334	-38.77466	701.97766	111.02857	-20.77975	777.92792	147.41385	20.64789	802.29742	58.88461	60.40149	784.04889	65.28966	-41.80128	682.24219	1040.82056	158.61028 
101	0.833	923.34247	1449.42529	123.79922	760.60327	1546.68774	149.27869	826.83484	1529.72009	303.36331	772.87299	1538.06714	6.40054	959.38068	1291.81213	123.75578	682.54578	1327.85339	162.77632	895.99078	1030.46643	269.73724	869.15076	1016.03033	-2.27050	697.77972	1045.31909	209.87250	681.85211	1037.56665	107.84562	839.80109	848.05170	-41.68343	934.57227	635.08704	-50.57789	982.44000	756.72791	-6.45058	860.60785	436.70880	-49.35231	764.67633	277.76285	-2.08632	859.74640	333.29703	21.80110	845.30713	828.40100	320.48956	857.23975	589.36487	285.62479	936.71851	747.39984	243.82027	833.85144	429.47772	291.40637	813.61383	176.62666	251.34113	872.57593	301.15591	208.84637	716.19824	66.66910	195.73407	1033.38525	50.64542	207.58803	937.25537	32.44318	156.49214	931.76196	30.05814	273.99634	878.10266	31.53147	264.80859	899.94067	94.16512	206.25356	980.55798	35.35765	160.03206	981.09241	36.76111	263.50311	636.85541	224.66551	71.97108	879.61938	45.78848	-1.34280	796.90326	78.75721	72.10134	769.98639	78.60033	-39.97138	728.69733	105.99709	-21.17594	803.18115	144.37068	20.38744	830.84595	56.76007	59.86732	812.66876	62.99335	-42.35879	689.81592	1041.44287	158.85905 
